<svg width="49" height="49" viewBox="0 0 49 49" fill="none" xmlns="http://www.w3.org/2000/svg">
<ellipse rx="16.9751" ry="16.8046" transform="matrix(0.814444 -0.580242 0.605953 0.7955 24.7305 24.7884)" fill="#D1F1FF"/>
<path fill-rule="evenodd" clip-rule="evenodd" d="M23.064 44.1309L35.4779 41.228C37.5148 40.7524 38.7765 38.7614 38.2813 36.8032L31.1277 8.5663C30.6326 6.60807 28.5582 5.39771 26.5196 5.87333L14.1057 8.77459C12.0689 9.25184 10.8072 11.2429 11.304 13.2011L18.4577 41.438C18.9528 43.3962 21.0255 44.6082 23.064 44.1309Z" fill="#142C8E"/>
<path fill-rule="evenodd" clip-rule="evenodd" d="M22.4239 39.648L33.9022 36.9632C35.2476 36.65 36.0824 35.333 35.7546 34.0406L29.5468 9.54149C29.219 8.24748 27.8497 7.44713 26.5044 7.76203L15.0261 10.4452C13.679 10.76 12.8458 12.0754 13.1736 13.3694L19.3797 37.8685C19.7076 39.1625 21.0768 39.9629 22.4239 39.648Z" fill="#1072EB"/>
<path fill-rule="evenodd" clip-rule="evenodd" d="M27.661 21.8669C27.8279 21.8753 27.9508 22.0154 27.9531 22.1769C27.9562 22.3987 27.9496 22.6335 27.9305 22.8851C27.8094 24.5044 27.0316 25.6854 25.6279 26.4609C25.0699 26.7647 24.4169 27.0086 23.6603 27.1877C23.6565 27.1886 23.6529 27.1895 23.6491 27.1904C23.5884 27.2049 23.0326 27.3375 22.2219 27.5295C22.1145 27.5541 21.9986 27.4876 21.9889 27.3814L21.6386 23.553C21.6198 23.3494 21.7085 23.1604 21.8654 23.0382C21.937 22.9796 22.0172 22.9388 22.1144 22.916L25.6655 22.0738C26.1072 21.9712 26.52 21.9044 26.8986 21.8734C27.0061 21.8653 27.1101 21.8604 27.2141 21.8571C27.3165 21.8555 27.4154 21.8571 27.5177 21.862C27.5638 21.8636 27.6132 21.8636 27.661 21.8669Z" fill="#1072EB"/>
<path fill-rule="evenodd" clip-rule="evenodd" d="M27.3676 41.6097L30.4476 40.8897C30.8573 40.7929 31.11 40.3927 31.011 39.9991C30.912 39.6055 30.4954 39.3628 30.0839 39.4579L27.0056 40.1779C26.5959 40.2746 26.3415 40.6748 26.4422 41.0668C26.5412 41.4604 26.9578 41.7048 27.3676 41.6097Z" fill="#1072EB"/>
<path fill-rule="evenodd" clip-rule="evenodd" d="M28.5956 17.4461C28.6126 17.5247 28.5468 17.59 28.4665 17.5852C28.4102 17.5836 28.3557 17.5771 28.2994 17.5755C28.1868 17.5738 28.0691 17.5722 27.9548 17.5738C27.8372 17.5771 27.7195 17.5836 27.5967 17.5934C27.1856 17.6292 26.737 17.6993 26.2612 17.8117L22.4372 18.7191C22.2974 18.7516 22.1661 18.8136 22.0569 18.8999C21.813 19.0921 21.6851 19.3886 21.7107 19.6884L22.3565 26.8765C22.4978 28.449 21.4627 29.8865 19.9266 30.2512C19.6725 30.3115 19.4183 30.1356 19.3945 29.8831L18.2313 17.0981C18.2006 16.7626 18.4308 16.4563 18.7736 16.3748L23.3173 15.298C24.9956 14.9005 26.3891 14.9429 27.3289 15.5473C27.9378 15.9391 28.3953 16.5209 28.5956 17.4461Z" fill="white"/>
<path fill-rule="evenodd" clip-rule="evenodd" d="M28.1446 18.2566C28.3112 18.265 28.4346 18.4091 28.4368 18.576C28.4396 18.7951 28.4329 19.0267 28.414 19.2748C28.2929 20.8941 27.5152 22.0751 26.1115 22.8506C25.5539 23.1542 24.9014 23.398 24.1456 23.577C24.1406 23.5782 24.1358 23.5793 24.1308 23.5805C24.0619 23.597 23.5088 23.7289 22.7054 23.9192C22.5975 23.9439 22.4819 23.8747 22.4718 23.7644L22.1221 19.9427C22.1034 19.7391 22.192 19.5501 22.349 19.4279C22.4206 19.3693 22.5008 19.3285 22.598 19.3057L26.149 18.4635C26.5908 18.3609 27.0035 18.2941 27.3822 18.2631C27.4896 18.255 27.5937 18.2501 27.6977 18.2468C27.8 18.2452 27.899 18.2468 28.0013 18.2517C28.0473 18.2533 28.0968 18.2533 28.1446 18.2566Z" fill="white"/>
<path fill-rule="evenodd" clip-rule="evenodd" d="M31.0623 20.7519C31.0708 20.8383 31.0777 20.923 31.0828 21.0077C31.2363 23.9026 29.5597 25.3133 27.102 25.8949L26.7233 25.9845C26.4197 26.0562 26.2185 26.325 26.2458 26.6231L26.5391 29.9252C26.5664 30.2201 26.3618 30.4921 26.0633 30.5606L23.8614 31.0835C23.6584 31.1307 23.4213 31.0053 23.3958 30.7821C23.3708 30.5085 22.9115 25.4197 22.89 25.1818C22.8893 25.1742 22.8888 25.1694 22.8883 25.1617C22.8656 24.8326 23.0883 24.5309 23.4238 24.4497C23.4278 24.4488 23.4313 24.448 23.4353 24.447C23.5182 24.4275 24.5184 24.1924 24.5266 24.1893C28.5251 23.2444 29.3289 20.8237 29.3915 18.9463C29.4007 18.6685 29.6798 18.4631 29.9128 18.6146C30.583 19.0593 30.9412 19.7973 31.0623 20.7519Z" fill="white"/>
<path fill-rule="evenodd" clip-rule="evenodd" d="M37.2386 2.33252C37.2386 2.33252 37.6025 9.06042 44.3362 8.88338C44.3362 8.88338 37.2386 8.70633 37.2386 15.7883C37.2386 15.7883 36.8746 8.70634 30.141 8.88338C30.141 8.88338 33.2346 8.70633 35.0548 6.93593C36.5553 5.47582 37.2386 2.33252 37.2386 2.33252Z" fill="#FED13C"/>
<path fill-rule="evenodd" clip-rule="evenodd" d="M27.4018 8.3313C27.4018 8.3313 27.6029 12.0458 31.3203 11.9482C31.3203 11.9482 27.4018 11.8502 27.4018 15.7603C27.4018 15.7603 27.2008 11.8502 23.4833 11.9482C23.4833 11.9482 25.1914 11.8502 26.1959 10.873C27.0245 10.0668 27.4018 8.3313 27.4018 8.3313Z" fill="#FED13C"/>
<path fill-rule="evenodd" clip-rule="evenodd" d="M22.2632 0C22.2632 0 22.4642 3.7145 26.1816 3.61689C26.1816 3.61689 22.2632 3.5189 22.2632 7.429C22.2632 7.429 22.0621 3.5189 18.3447 3.61689C18.3447 3.61689 20.0527 3.5189 21.0572 2.54166C21.8858 1.73551 22.2632 0 22.2632 0Z" fill="#FED13C"/>
</svg>
