<svg width="49" height="50" viewBox="0 0 49 50" fill="none" xmlns="http://www.w3.org/2000/svg">
<path fill-rule="evenodd" clip-rule="evenodd" d="M3.76904 8.67124C3.76904 5.96505 5.96285 3.77124 8.66904 3.77124H44.0998C46.806 3.77124 48.9998 5.96504 48.9998 8.67124V45.9435C48.9998 47.1761 47.574 47.8614 46.6115 47.0914L43.346 44.4789L40.1409 47.043C38.7093 48.1883 36.675 48.1883 35.2433 47.043L32.0383 44.4789L28.8332 47.043C27.4016 48.1883 25.3673 48.1883 23.9356 47.043L20.7306 44.4789L17.5255 47.043C16.0939 48.1883 14.0596 48.1883 12.6279 47.043L9.42289 44.4789L6.15734 47.0914C5.19484 47.8614 3.76904 47.1761 3.76904 45.9435V8.67124Z" fill="#DBD8D0"/>
<path fill-rule="evenodd" clip-rule="evenodd" d="M1 5.90196C1 3.19576 3.1938 1.00195 5.9 1.00195H41.3308C44.037 1.00195 46.2308 3.19576 46.2308 5.90195V43.1742C46.2308 44.4068 44.805 45.0921 43.8425 44.3221L40.5769 41.7096L37.3719 44.2737C35.9402 45.419 33.9059 45.419 32.4743 44.2737L29.2692 41.7096L26.0642 44.2737C24.6325 45.419 22.5982 45.419 21.1666 44.2737L17.9615 41.7096L14.7565 44.2737C13.3248 45.419 11.2905 45.419 9.85889 44.2737L6.65385 41.7096L3.3883 44.3221C2.4258 45.0921 1 44.4068 1 43.1742V5.90196Z" fill="white" stroke="#ACADAD"/>
<path fill-rule="evenodd" clip-rule="evenodd" d="M16.6924 11.2127C16.6924 10.6714 17.1311 10.2327 17.6724 10.2327H36.9431C37.4844 10.2327 37.9231 10.6714 37.9231 11.2127V14.7911C37.9231 15.3324 37.4844 15.7711 36.9431 15.7711H17.6724C17.1311 15.7711 16.6924 15.3324 16.6924 14.7911V11.2127ZM16.6925 19.5204C16.6925 18.9791 17.1313 18.5404 17.6725 18.5404H36.9433C37.4845 18.5404 37.9233 18.9791 37.9233 19.5204V23.0988C37.9233 23.6401 37.4845 24.0788 36.9433 24.0788H17.6725C17.1313 24.0788 16.6925 23.6401 16.6925 23.0988V19.5204ZM17.6725 26.8481C17.1313 26.8481 16.6925 27.2868 16.6925 27.8281V31.4065C16.6925 31.9478 17.1313 32.3865 17.6725 32.3865H36.9433C37.4845 32.3865 37.9233 31.9478 37.9233 31.4065V27.8281C37.9233 27.2868 37.4845 26.8481 36.9433 26.8481H17.6725Z" fill="#1072EB"/>
<rect x="8.38477" y="10.2327" width="2.76923" height="5.53846" rx="0.98" fill="#329EF4"/>
<rect x="8.38477" y="18.5404" width="2.76923" height="5.53846" rx="0.98" fill="#329EF4"/>
<rect x="8.38477" y="26.8481" width="2.76923" height="5.53846" rx="0.98" fill="#329EF4"/>
</svg>
