<svg width="48" height="49" viewBox="0 0 48 49" fill="none" xmlns="http://www.w3.org/2000/svg">
<ellipse cx="25.5" cy="38.5" rx="4.5" ry="14.5" transform="rotate(-90 25.5 38.5)" fill="#DBD8D0"/>
<path d="M22.0015 23L20.0001 23.7456L24.5669 36.0037L26.0925 38.5691L27.0931 38.1963L26.5683 35.2581L22.0015 23Z" fill="#757676"/>
<path d="M20.4116 1.24075L6.40201 6.45916C4.77636 7.0647 4.6729 9.32486 6.23642 10.0764L8.07936 10.9622L13.1288 24.518C13.3592 25.1366 13.3779 25.8141 13.182 26.4445L12.6405 28.1869C12.0861 29.9707 13.8223 31.6135 15.5728 30.9615L19.7872 29.3917L25.2909 27.3416L29.5755 25.7456C31.2974 25.1042 31.5318 22.7648 29.9715 21.7945L28.3584 20.7914C27.7978 20.4428 27.3687 19.9181 27.1383 19.2995L22.4297 6.65859C22.211 6.07168 22.2282 5.42289 22.4777 4.84839L23.4529 2.60207C23.9375 1.48581 22.8454 0.334172 21.705 0.758955L20.4116 1.24075Z" fill="#1072EB"/>
<mask id="mask0" style="mask-type:alpha" maskUnits="userSpaceOnUse" x="5" y="0" width="26" height="32">
<path d="M6.44108 6.44462C4.80095 7.05555 4.69657 9.33584 6.27402 10.0941L7.20001 10.5392C7.7645 10.8105 8.20195 11.2899 8.42057 11.8768L13.1293 24.5178C13.3597 25.1364 13.3784 25.814 13.1825 26.4443L12.6271 28.2314C12.0784 29.997 13.7969 31.6231 15.5295 30.9777L19.7876 29.3915L29.5443 25.7572C31.2791 25.111 31.5153 22.754 29.9432 21.7764L28.3589 20.7912C27.7983 20.4426 27.3692 19.9179 27.1388 19.2993L22.0894 5.74363L23.4534 2.60189C23.938 1.48562 22.8458 0.333986 21.7055 0.75877L20.412 1.24056L10.7355 4.84497L6.44108 6.44462Z" fill="#1072EB"/>
</mask>
<g mask="url(#mask0)">
<path d="M18.2454 0.707708L25.3967 -1.15602L34.8618 24.2541L27.7105 26.8338L23.7309 21.9045L18.1291 6.86586L18.2454 0.707708Z" fill="#329EF4"/>
<rect opacity="0.2" width="14.9499" height="15.4838" transform="matrix(-0.937081 0.349113 0.349113 0.937081 22.0884 5.74353)" fill="#142C8E"/>
</g>
</svg>
