<svg xmlns="http://www.w3.org/2000/svg" viewBox="0 0 1400 600" width="1400" height="600" preserveAspectRatio="xMidYMid meet" style="width: 100%; height: 100%; transform: translate3d(0px, 0px, 0px); content-visibility: visible;"><defs><clipPath id="__lottie_element_34"><rect width="1400" height="600" x="0" y="0"/></clipPath><clipPath id="__lottie_element_36"><path d="M0,0 L1400,0 L1400,600 L0,600z"/></clipPath></defs><g clip-path="url(#__lottie_element_34)"><g clip-path="url(#__lottie_element_36)" transform="matrix(1,0,0,1,0,0)" opacity="1" style="display: block;"><g transform="matrix(1,0,0,1,0,0)" opacity="1" style="display: block;"><g opacity="1" transform="matrix(1,0,0,1,0,0)"><path fill="rgb(255,255,255)" fill-opacity="1" d=" M1400,0 C1400,0 0,0 0,0 C0,0 0,600 0,600 C0,600 1400,600 1400,600 C1400,600 1400,0 1400,0z M740.6010131835938,340.74798583984375 C744.0050048828125,319.1520080566406 762.6190185546875,303.24200439453125 784.4879760742188,303.24200439453125 C784.4879760742188,303.24200439453125 1400.0009765625,303.1180114746094 1400.0009765625,303.1180114746094 C1400.0009765625,303.1180114746094 1400,600 1400,600 C1400,600 700,600 700,600 C700,600 740.6010131835938,340.74798583984375 740.6010131835938,340.74798583984375z"/></g></g></g></g></svg>