<svg xmlns="http://www.w3.org/2000/svg" viewBox="0 0 1400 600" width="1400" height="600" preserveAspectRatio="xMidYMid slice" style="width: 100%; height: 100%; transform: translate3d(0px, 0px, 0px); content-visibility: visible;"><defs><clipPath id="__lottie_element_25"><rect width="1400" height="600" x="0" y="0"/></clipPath><clipPath id="__lottie_element_27"><path d="M0,0 L1400,0 L1400,600 L0,600z"/></clipPath></defs><g clip-path="url(#__lottie_element_25)"><g clip-path="url(#__lottie_element_27)" transform="matrix(-1,0,0,-1,1400,600)" opacity="1" style="display: block;"><g transform="matrix(1,0,0,1,0,0)" opacity="1" style="display: block;"><g opacity="1" transform="matrix(1,0,0,1,0,0)"><path fill="rgb(0,255,0)" fill-opacity="1" d=" M713.0659790039062,516.9329833984375 C713.0659790039062,516.9329833984375 700.0570068359375,599.9990234375 700.0570068359375,599.9990234375 C700.0570068359375,599.9990234375 1400.0570068359375,600 1400.0570068359375,600 C1400.0570068359375,600 1400.0560302734375,479.2869873046875 1400.0560302734375,479.2869873046875 C1400.0560302734375,479.2869873046875 756.9329833984375,479.4110107421875 756.9329833984375,479.4110107421875 C735.0770263671875,479.427001953125 716.4719848632812,495.3380126953125 713.0659790039062,516.9329833984375z"/></g></g></g></g></svg>