<svg width="48" height="48" viewBox="0 0 48 48" fill="none" xmlns="http://www.w3.org/2000/svg">
<ellipse cx="24" cy="24.0001" rx="17.1645" ry="17.1645" transform="rotate(-36.378 24 24.0001)" fill="#D1F1FF"/>
<path d="M15.0871 26.748C12.5126 29.72 10.9679 30.7106 6.84863 32.692C10.453 32.1966 14.5722 30.2153 16.6318 28.7293L15.0871 26.748Z" fill="#FED13C"/>
<path d="M20.7812 32.8508C17.3206 35.3557 16.1133 36.924 13.618 41.1606C14.4435 37.3514 16.9388 33.1149 18.7296 31.0374L20.7812 32.8508Z" fill="#FED13C"/>
<path d="M22.2362 27.8826L19.9297 25.5472L5.32294 41.8952L22.2362 27.8826Z" fill="#FED13C"/>
<path d="M6.84808 26.8048C6.84808 26.8048 10.0919 16.2772 19.7398 18.9722L16.1634 25.1203C13.1692 23.9413 10.3414 23.9413 6.84808 26.8048Z" fill="#142C8E"/>
<path d="M20.4883 40.6173C20.4883 40.6173 30.8847 37.3326 28.2233 27.563L22.1517 31.1845C23.3161 34.2164 23.3161 37.08 20.4883 40.6173Z" fill="#142C8E"/>
<path d="M13.9658 27.1058L20.0376 33.2542C32.9332 28.5984 40.082 18.1785 39.9572 6.93485C28.937 6.89289 18.5636 14.0475 13.9658 27.1058Z" fill="#1072EB"/>
<circle r="3.07755" transform="matrix(0.70266 0.711526 -0.70266 0.711526 27.8564 19.2735)" fill="white"/>
<path d="M38.5497 15.6162L31.4199 8.39643C34.1564 7.41896 37.0341 6.92372 39.9573 6.93485C39.9904 9.91733 39.5117 12.8418 38.5497 15.6162Z" fill="#142C8E"/>
<path d="M13.799 27.6114L19.621 33.507C20.0298 33.3594 20.8488 32.9532 21.246 32.7942L14.4197 25.8818C14.261 26.2877 13.9352 27.1972 13.799 27.6114Z" fill="#56CCFE"/>
</svg>
