<svg xmlns="http://www.w3.org/2000/svg" viewBox="0 0 1400 600" width="1400" height="600" preserveAspectRatio="xMidYMid slice" style="width: 100%; height: 100%; transform: translate3d(0px, 0px, 0px); content-visibility: visible;"><defs><clipPath id="__lottie_element_52"><rect width="1400" height="600" x="0" y="0"/></clipPath><clipPath id="__lottie_element_54"><path fill="#ffffff" clip-rule="nonzero" d=" M937.2169799804688,0.75 C902.7849731445312,0.75 873.6209716796875,25.78700065612793 868.2230224609375,59.683998107910156 C868.2230224609375,59.683998107910156 581.9849853515625,1873.800048828125 581.9849853515625,1873.800048828125 C576.5880126953125,1908.2120361328125 603.1790161132812,1939.4110107421875 638,1939.4110107421875 C638,1939.4110107421875 2289.969970703125,1939.4110107421875 2289.969970703125,1939.4110107421875 C2324.27197265625,1939.4110107421875 2353.56591796875,1914.3740234375 2358.962890625,1880.4739990234375 C2358.962890625,1880.4739990234375 2455.06201171875,1271.363037109375 2455.06201171875,1271.363037109375 C2460.458984375,1237.468994140625 2489.74609375,1212.426025390625 2524.049072265625,1212.426025390625 C2524.049072265625,1212.426025390625 2860.137939453125,1212.426025390625 2860.137939453125,1212.426025390625 C3198.4130859375,1212.426025390625 3485.422119140625,965.7780151367188 3537.841064453125,631.6900024414062 C3590.77197265625,294.6499938964844 3327.27001953125,0.878000020980835 2953.79296875,0.878000020980835 C2953.79296875,0.878000020980835 937.2169799804688,0.878000020980835 937.2169799804688,0.878000020980835 C937.2169799804688,0.878000020980835 937.2169799804688,0.75 937.2169799804688,0.75" fill-opacity="1"/></clipPath></defs><g clip-path="url(#__lottie_element_52)"><g transform="matrix(1,0,0,1,443.010009765625,243.37896728515625)" opacity="1" style="display: block;"><g opacity="1" transform="matrix(1,0,0,1,766.5390014648438,178.43600463867188)"><path fill="rgb(0,255,0)" fill-opacity="1" d=" M170.177001953125,-178.18600463867188 C135.7449951171875,-178.18600463867188 106.58100128173828,-153.1490020751953 101.18299865722656,-119.25199890136719 C101.18299865722656,-119.25199890136719 -185.0540008544922,1694.864013671875 -185.0540008544922,1694.864013671875 C-190.4510040283203,1729.2760009765625 -163.86000061035156,1760.4749755859375 -129.03900146484375,1760.4749755859375 C-129.03900146484375,1760.4749755859375 1522.9310302734375,1760.4749755859375 1522.9310302734375,1760.4749755859375 C1557.2330322265625,1760.4749755859375 1586.5269775390625,1735.43798828125 1591.9239501953125,1701.5379638671875 C1591.9239501953125,1701.5379638671875 1688.02197265625,1092.427001953125 1688.02197265625,1092.427001953125 C1693.4189453125,1058.532958984375 1722.70703125,1033.489990234375 1757.010009765625,1033.489990234375 C1757.010009765625,1033.489990234375 2093.09912109375,1033.489990234375 2093.09912109375,1033.489990234375 C2431.3740234375,1033.489990234375 2718.383056640625,786.8419799804688 2770.802001953125,452.7539978027344 C2823.73291015625,115.71399688720703 2560.23095703125,-178.05799865722656 2186.75390625,-178.05799865722656 C2186.75390625,-178.05799865722656 170.177001953125,-178.05799865722656 170.177001953125,-178.05799865722656 C170.177001953125,-178.05799865722656 170.177001953125,-178.18600463867188 170.177001953125,-178.18600463867188z"/></g><g opacity="1" transform="matrix(1,0,0,1,478.6199951171875,322.6449890136719)"><path fill="rgb(255,0,0)" fill-opacity="1" d=" M-157.8780059814453,-33.97600173950195 C-188.4550018310547,-33.97600173950195 -214.3470001220703,-11.744999885559082 -219.14100646972656,18.351999282836914 C-219.14100646972656,18.351999282836914 -230.5760040283203,90.13099670410156 -230.5760040283203,90.13099670410156 C-230.5760040283203,90.13099670410156 -473.5790100097656,1629.489013671875 -473.5790100097656,1629.489013671875 C-478.3699951171875,1660.0400390625 -454.7560119628906,1687.7459716796875 -423.72698974609375,1687.7459716796875 C-423.72698974609375,1687.7459716796875 -99.85900115966797,1687.7459716796875 -99.85900115966797,1687.7459716796875 C-69.28900146484375,1687.7459716796875 -43.38999938964844,1665.5150146484375 -38.60200119018555,1635.41796875 C-38.60200119018555,1635.41796875 46.733001708984375,1094.58203125 46.733001708984375,1094.58203125 C51.520999908447266,1064.4849853515625 77.52999877929688,1042.2540283203125 107.98999786376953,1042.2540283203125 C107.98999786376953,1042.2540283203125 1267.3310546875,1042.2540283203125 1267.3310546875,1042.2540283203125 C1567.699951171875,1042.2540283203125 1822.5450439453125,823.2540283203125 1869.0870361328125,526.6170043945312 C1915.97900390625,227.35499572753906 1682.114990234375,-33.5989990234375 1350.3790283203125,-33.5989990234375 C1350.3790283203125,-33.5989990234375 -157.8780059814453,-33.97600173950195 -157.8780059814453,-33.97600173950195z"/></g></g><g clip-path="url(#__lottie_element_54)" transform="matrix(1,0,0,1,443.010009765625,243.37896728515625)" opacity="1" style="display: block;"><g opacity="1" transform="matrix(1,0,0,1,766.5390014648438,178.43600463867188)"><path fill="rgb(0,255,0)" fill-opacity="1" d=" M170.177001953125,-178.18600463867188 C135.7449951171875,-178.18600463867188 106.58100128173828,-153.1490020751953 101.18299865722656,-119.25199890136719 C101.18299865722656,-119.25199890136719 -185.0540008544922,1694.864013671875 -185.0540008544922,1694.864013671875 C-190.4510040283203,1729.2760009765625 -163.86000061035156,1760.4749755859375 -129.03900146484375,1760.4749755859375 C-129.03900146484375,1760.4749755859375 1522.9310302734375,1760.4749755859375 1522.9310302734375,1760.4749755859375 C1557.2330322265625,1760.4749755859375 1586.5269775390625,1735.43798828125 1591.9239501953125,1701.5379638671875 C1591.9239501953125,1701.5379638671875 1688.02197265625,1092.427001953125 1688.02197265625,1092.427001953125 C1693.4189453125,1058.532958984375 1722.70703125,1033.489990234375 1757.010009765625,1033.489990234375 C1757.010009765625,1033.489990234375 2093.09912109375,1033.489990234375 2093.09912109375,1033.489990234375 C2431.3740234375,1033.489990234375 2718.383056640625,786.8419799804688 2770.802001953125,452.7539978027344 C2823.73291015625,115.71399688720703 2560.23095703125,-178.05799865722656 2186.75390625,-178.05799865722656 C2186.75390625,-178.05799865722656 170.177001953125,-178.05799865722656 170.177001953125,-178.05799865722656 C170.177001953125,-178.05799865722656 170.177001953125,-178.18600463867188 170.177001953125,-178.18600463867188z"/></g><g opacity="1" transform="matrix(1,0,0,1,478.6199951171875,322.6449890136719)"><path fill="rgb(0,0,255)" fill-opacity="1" d=" M-157.8780059814453,-33.97600173950195 C-188.4550018310547,-33.97600173950195 -214.3470001220703,-11.744999885559082 -219.14100646972656,18.351999282836914 C-219.14100646972656,18.351999282836914 -230.5760040283203,90.13099670410156 -230.5760040283203,90.13099670410156 C-230.5760040283203,90.13099670410156 -473.5790100097656,1629.489013671875 -473.5790100097656,1629.489013671875 C-478.3699951171875,1660.0400390625 -454.7560119628906,1687.7459716796875 -423.72698974609375,1687.7459716796875 C-423.72698974609375,1687.7459716796875 -99.85900115966797,1687.7459716796875 -99.85900115966797,1687.7459716796875 C-69.28900146484375,1687.7459716796875 -43.38999938964844,1665.5150146484375 -38.60200119018555,1635.41796875 C-38.60200119018555,1635.41796875 46.733001708984375,1094.58203125 46.733001708984375,1094.58203125 C51.520999908447266,1064.4849853515625 77.52999877929688,1042.2540283203125 107.98999786376953,1042.2540283203125 C107.98999786376953,1042.2540283203125 1267.3310546875,1042.2540283203125 1267.3310546875,1042.2540283203125 C1567.699951171875,1042.2540283203125 1822.5450439453125,823.2540283203125 1869.0870361328125,526.6170043945312 C1915.97900390625,227.35499572753906 1682.114990234375,-33.5989990234375 1350.3790283203125,-33.5989990234375 C1350.3790283203125,-33.5989990234375 -157.8780059814453,-33.97600173950195 -157.8780059814453,-33.97600173950195z"/></g></g></g></svg>